Coordinates
nRows=122
nColumns=2
inDegrees=yes
endheader
time	ankle_angle_r	
2.79133	 -5.392244	
2.8629	 -5.384761	
2.93448	 -5.394312	
3.00605	 -5.408151	
3.07762	 -5.418735	
3.14919	 -5.399742	
3.22077	 -5.388774	
3.29234	 -5.415957	
3.36391	 -5.425599	
3.43548	 -5.395621	
3.50706	 -5.379344	
3.57863	 -5.417428	
3.6502	 -5.410522	
3.72177	 -5.348753	
3.79335	 -5.340055	
3.86492	 -5.353977	
3.93649	 -5.363920	
4.00806	 -5.354400	
4.07964	 -5.338144	
4.15121	 -5.366898	
4.22278	 -5.372010	
4.29435	 -5.333839	
4.36593	 -5.339070	
4.4375	 -5.369306	
4.50907	 -5.340646	
4.58065	 -5.305314	
4.65222	 -5.325428	
4.72379	 -5.347717	
4.79536	 -5.320489	
4.86694	 -5.287365	
4.93851	 -5.339695	
5.01008	 -5.380048	
5.08165	 -5.327170	
5.15323	 -5.297666	
5.2248	 -5.313975	
5.29637	 -5.316790	
5.36794	 -5.275305	
5.43952	 -5.252325	
5.51109	 -5.309622	
5.58266	 -5.349154	
5.65423	 -5.325362	
5.72581	 -5.338941	
5.79738	 -5.414033	
5.86895	 -5.435913	
5.94052	 -5.398808	
6.0121	 -5.405202	
6.08367	 -5.442354	
6.15524	 -5.421748	
6.22681	 -5.355333	
6.29839	 -5.367180	
6.36996	 -5.427714	
6.44153	 -5.392899	
6.5131	 -5.325314	
6.58468	 -5.349518	
6.65625	 -5.374236	
6.72782	 -5.330975	
6.7994	 -5.335142	
6.87097	 -5.365047	
6.94254	 -5.352256	
7.01411	 -5.347474	
7.08569	 -5.354589	
7.15726	 -5.369300	
7.22883	 -5.357991	
7.3004	 -5.331075	
7.37198	 -5.348727	
7.44355	 -5.356850	
7.51512	 -5.331445	
7.58669	 -5.302595	
7.65827	 -5.292729	
7.72984	 -5.328602	
7.80141	 -5.351320	
7.87298	 -5.331076	
7.94456	 -5.357221	
8.01613	 -5.394436	
8.0877	 -5.341968	
8.15927	 -5.304839	
8.23085	 -5.355244	
8.30242	 -5.381268	
8.37399	 -5.336765	
8.44556	 -5.300846	
8.51714	 -5.336032	
8.58871	 -5.391377	
8.66028	 -5.395085	
8.73185	 -5.369520	
8.80343	 -5.390846	
8.875	 -5.436155	
8.94657	 -5.412996	
9.01815	 -5.383646	
9.08972	 -5.411846	
9.16129	 -5.434203	
9.23286	 -5.414141	
9.30444	 -5.393542	
9.37601	 -5.429989	
9.44758	 -5.455067	
9.51915	 -5.407565	
9.59073	 -5.361901	
9.6623	 -5.367884	
9.73387	 -5.374962	
9.80544	 -5.338707	
9.87702	 -5.327260	
9.94859	 -5.362280	
10.0202	 -5.358089	
10.0917	 -5.319337	
10.1633	 -5.351485	
10.2349	 -5.426340	
10.3065	 -5.419554	
10.378	 -5.390131	
10.4496	 -5.411080	
10.5212	 -5.435360	
10.5927	 -5.431310	
10.6643	 -5.409614	
10.7359	 -5.430493	
10.8075	 -5.457606	
10.879	 -5.426664	
10.9506	 -5.402701	
11.0222	 -5.430532	
11.0937	 -5.441346	
11.1653	 -5.383942	
11.2369	 -5.372518	
11.3085	 -5.412400	
11.38	 -5.388885	
11.4516	 -5.360576	
